<?xml version="1.0" encoding="UTF-8" standalone="no"?>
<svg
   width="110"
   height="110"
   viewBox="0 0 109.99999 110"
   version="1.1"
   id="svg5"
   sodipodi:docname="logo.svg"
   inkscape:version="1.2.1 (9c6d41e410, 2022-07-14)"
   inkscape:export-filename="icon-16.png"
   inkscape:export-xdpi="111.70909"
   inkscape:export-ydpi="111.70909"
   xmlns:inkscape="http://www.inkscape.org/namespaces/inkscape"
   xmlns:sodipodi="http://sodipodi.sourceforge.net/DTD/sodipodi-0.dtd"
   xmlns="http://www.w3.org/2000/svg"
   xmlns:svg="http://www.w3.org/2000/svg">
  <defs
     id="defs9" />
  <sodipodi:namedview
     id="namedview7"
     pagecolor="#505050"
     bordercolor="#eeeeee"
     borderopacity="1"
     inkscape:showpageshadow="0"
     inkscape:pageopacity="0"
     inkscape:pagecheckerboard="0"
     inkscape:deskcolor="#505050"
     showgrid="false"
     inkscape:zoom="4.2055612"
     inkscape:cx="-5.9445098"
     inkscape:cy="87.740965"
     inkscape:window-width="1920"
     inkscape:window-height="1027"
     inkscape:window-x="-8"
     inkscape:window-y="-8"
     inkscape:window-maximized="1"
     inkscape:current-layer="layer2" />
  <g
     inkscape:groupmode="layer"
     id="layer1"
     inkscape:label="bg">
    <circle
       style="fill:#1a1a1a;stroke-width:1.02706;fill-opacity:1"
       id="path167"
       cx="55"
       cy="55"
       r="55" />
  </g>
  <g
     inkscape:groupmode="layer"
     id="layer2"
     inkscape:label="R"
     style="display:inline">
    <path
       d="m 99.827618,29.767339 q 0,5.145794 -2.902478,9.701965 a 33.991529,26.992907 0 0 1 -7.399328,7.695105 38.773212,30.790076 0 0 1 -0.633143,0.452404 45.943038,36.483683 0 0 1 -8.884321,4.83919 54.10916,42.968457 0 0 1 -3.130639,1.217839 52.386566,41.600533 0 0 1 -12.483407,3.01565 60.011338,47.655418 0 0 1 -2.501539,0.307674 q 2.024994,4.824182 4.927484,9.916377 2.902489,5.092192 6.277476,9.809169 a 119.38819,94.806976 0 0 0 4.990934,6.392579 102.82645,81.655182 0 0 0 2.029041,2.290949 70.280754,55.810429 0 0 0 3.163041,3.204329 q 1.63889,1.534088 3.24944,2.776584 a 39.751959,31.567306 0 0 0 0.742499,0.558531 q -0.674999,1.072042 -1.957498,2.144084 a 17.610687,13.98477 0 0 1 -2.250445,1.576971 20.351178,16.161012 0 0 1 -0.719542,0.406306 q -1.687494,0.911235 -3.509991,1.500858 a 10.77566,8.557027 0 0 1 -1.664542,0.423469 7.9811718,6.3379036 0 0 1 -1.777943,0.166154 6.5636769,5.212261 0 0 1 -3.343939,-0.752568 Q 71.10243,96.973552 70.187133,96.281011 A 13.409504,10.648578 0 0 1 69.722736,95.91223 18.315385,14.544373 0 0 1 68.028493,94.248435 Q 66.157398,92.136512 64.255256,88.783167 62.374712,85.467348 60.36862,80.815763 A 214.9449,170.68923 0 0 1 58.450276,76.133089 431.75682,342.86108 0 0 1 56.086434,69.85951 Q 55.065837,67.059339 53.987191,63.951493 A 820.83489,651.83065 0 0 1 51.7678,57.425983 h -2.969992 q -1.484993,0 -2.29499,-0.214408 a 4.7776332,3.7939513 0 0 1 -0.665547,-0.370924 q -0.647999,-0.42453 -1.354046,-1.124571 a 17.886087,14.203465 0 0 1 -0.0055,-0.0055 q -3.644987,6.217832 -6.479977,11.685241 a 262.15018,208.17525 0 0 0 -3.910936,7.989915 228.01015,181.06443 0 0 0 -1.151544,2.569683 q -2.227495,5.092191 -3.914988,9.862773 -1.687494,4.770581 -2.902489,9.701974 A 19.47773,15.467402 0 0 1 20.14685,95.566912 18.084536,14.361055 0 0 1 18.152909,94.411254 q -2.840423,-1.895317 -5.394611,-5.081416 a 43.599448,34.622621 0 0 1 -0.9504,-1.243569 q 0.540001,-0.964835 1.147502,-1.87607 0.465747,-0.697899 1.128588,-1.835334 a 110.65641,87.873013 0 0 0 0.423904,-0.737563 q 0.897742,-1.579116 2.22209,-3.980488 a 897.83469,712.97662 0 0 0 0.140399,-0.254074 l 3.779987,-6.861058 a 814.07143,646.45974 0 0 0 1.904844,-3.487348 q 0.849146,-1.566251 1.790094,-3.321184 a 1660.7924,1318.8467 0 0 0 1.975043,-3.697464 Q 28.59374,57.76146 31.53808,52.219008 a 48746.365,38709.824 0 0 0 2.81474,-5.299094 680.53666,540.41885 0 0 0 1.534943,-2.838763 q 1.206897,-2.253429 2.177543,-4.129501 1.552496,-3.001714 2.767491,-5.735417 1.214997,-2.733703 2.227492,-5.467406 a 138.89562,110.29794 0 0 0 0.899097,-2.546097 q 0.585898,-1.735633 1.193396,-3.725342 -6.209978,1.715267 -11.542459,3.805746 a 54.00656,42.886981 0 0 0 -4.317285,1.880358 q -2.550141,1.242496 -4.525184,2.56861 -0.944996,-0.499571 -1.929143,-1.388293 a 16.99104,13.492702 0 0 1 -0.568349,-0.541382 25.34886,20.129705 0 0 1 -1.950743,-2.267365 28.657699,22.757277 0 0 1 -0.411746,-0.57354 q -1.079955,-1.554409 -1.889951,-3.162468 a 16.72644,13.28258 0 0 1 -0.546749,-1.253216 q -0.228149,-0.630361 -0.334796,-1.20283 a 8.8843199,7.0550986 0 0 1 -0.06344,-0.438465 41.839052,33.224681 0 0 1 3.892035,-1.814962 q 2.045244,-0.844769 4.414487,-1.632719 a 72.521745,57.590017 0 0 1 1.615939,-0.518868 104.47207,82.961992 0 0 1 10.033163,-2.642581 117.92344,93.643798 0 0 1 2.454293,-0.519946 q 6.614971,-1.340022 13.499945,-2.090457 a 104.94997,83.341501 0 0 1 7.446574,-0.606775 82.881601,65.816856 0 0 1 5.378382,-0.1436499 q 10.93631,0 18.548937,2.4185239 a 28.517299,22.645782 0 0 1 6.560974,2.888079 q 8.909952,5.3066 8.909952,14.526151 z m -34.559868,-11.04202 1.619996,2.036878 a 12.642706,10.039659 0 0 0 -0.502198,0.558533 q -0.828899,0.979846 -2.173493,2.882718 a 137.17573,108.93218 0 0 0 -0.294298,0.418096 269.69529,214.1669 0 0 0 -1.603793,2.329542 q -0.7047,1.035593 -1.467446,2.182676 a 497.51645,395.08124 0 0 0 -1.586244,2.402442 q -2.632492,4.020151 -5.534982,8.73713 -2.90249,4.716979 -5.602481,9.326752 a 94.946506,75.397683 0 0 0 10.878264,-0.474913 75.756332,60.158626 0 0 0 7.751671,-1.025942 q 8.50497,-1.500856 14.71495,-4.23456 a 35.392827,28.105686 0 0 0 5.059785,-2.675814 25.756558,20.453461 0 0 0 4.592677,-3.75643 q 3.442492,-3.698539 3.442492,-8.20111 a 14.897197,11.829969 0 0 0 -0.623702,-3.518436 11.33996,9.0051397 0 0 0 -4.236285,-4.682675 15.264396,12.121562 0 0 0 -4.172835,-1.674524 q -4.047284,-1.09134 -9.984563,-1.161023 a 55.488854,44.064081 0 0 0 -0.827546,-0.0055 q -2.294994,0 -4.589984,0.160806 -2.294993,0.160806 -4.859985,0.375214 z"
       id="0"
       vector-effect="non-scaling-stroke"
       style="font-size:12px;display:inline;fill:#f3f3f7;fill-opacity:1;fill-rule:evenodd;stroke:#f3f3f7;stroke-width:0.60151mm;stroke-linecap:round;stroke-opacity:1" />
  </g>
  <g
     inkscape:groupmode="layer"
     id="layer3"
     inkscape:label="S"
     style="display:inline">
    <path
       d="m -31.964878,9.6009392 -2.782589,8.8828878 q 3.531743,1.177251 7.06349,2.836103 3.53176,1.658854 6.95648,3.692287 0.21405,1.498318 0.26757,2.193966 a 18.582361,18.582361 0 0 1 0.0525,1.246815 20.678937,20.678937 0 0 1 10e-4,0.197992 q 0,3.745797 -1.71237,6.956479 -1.71237,3.210682 -4.28091,4.387933 -1.92641,-3.424728 -5.083584,-5.886252 -3.157167,-2.461523 -6.902963,-4.066864 -1.92641,6.100297 -3.85282,11.933037 -1.92641,5.83274 -3.745796,11.504946 l 1.284273,0.642137 a 65.835048,65.835048 0 0 1 5.946184,3.616299 q 2.81898,1.940322 5.002244,3.968404 a 31.367299,31.367299 0 0 1 2.536431,2.635971 19.131388,19.131388 0 0 1 4.412561,10.278465 25.460714,25.460714 0 0 1 0.18942,3.15289 27.140971,27.140971 0 0 1 -0.51371,5.383245 21.943946,21.943946 0 0 1 -1.30568,4.248803 q -1.819381,4.28091 -5.030061,7.331059 a 21.797325,21.797325 0 0 1 -6.53481,4.243453 25.483188,25.483188 0 0 1 -1.170828,0.465549 26.835957,26.835957 0 0 1 -6.616147,1.495106 33.146018,33.146018 0 0 1 -3.33697,0.16375 31.778267,31.778267 0 0 1 -6.377486,-0.67746 42.23118,42.23118 0 0 1 -5.287993,-1.462999 q -1.819388,3.852819 -3.47824,7.224039 -1.658853,3.37121 -3.264195,6.1538 a 3.9523504,3.9523504 0 0 1 -2.881053,-2.26674 7.1148729,7.1148729 0 0 1 -0.543675,-1.58608 30.061622,30.061622 0 0 0 0.908624,-1.50687 q 0.393843,-0.69458 0.809092,-1.49511 a 64.613919,64.613919 0 0 0 0.85083,-1.70701 89.018319,89.018319 0 0 0 1.328153,-2.89711 q 0.765213,-1.748753 1.561462,-3.738306 -3.852819,-1.712364 -7.438082,-4.013353 a 41.464897,41.464897 0 0 1 -4.430742,-3.260984 35.317509,35.317509 0 0 1 -1.883601,-1.715575 26.076094,26.076094 0 0 1 -2.844665,-3.271685 21.459133,21.459133 0 0 1 -1.489756,-2.347009 13.040723,13.040723 0 0 1 -1.413771,-3.920244 11.848489,11.848489 0 0 1 -0.191571,-2.126542 q 0,-2.033432 1.159057,-5.224851 a 34.397114,34.397114 0 0 1 0.125216,-0.340333 17.233874,17.233874 0 0 1 1.499389,-3.001987 q 1.256447,-2.032362 3.209613,-4.168537 a 10.763279,10.763279 0 0 0 0.317857,2.487209 q 0.549028,2.303129 2.046275,5.141373 a 35.497308,35.497308 0 0 0 0.09739,0.184079 21.991036,21.991036 0 0 0 3.087606,4.332282 q 1.623535,1.802263 3.76292,3.512486 a 39.864907,39.864907 0 0 0 1.069157,0.824076 38.880297,38.880297 0 0 0 7.052801,4.357966 35.999245,35.999245 0 0 0 0.759861,0.351035 q 1.926409,-5.779229 3.959841,-12.093571 2.033433,-6.314344 3.85282,-13.056777 a 78.664937,78.664937 0 0 1 -5.199212,-3.189278 q -5.012946,-3.370147 -7.827644,-6.646113 a 22.80762,22.80762 0 0 1 -0.190501,-0.224748 q -4.120376,-4.923047 -4.120376,-11.237389 0,-4.601979 1.765876,-8.668843 1.765875,-4.066866 5.083581,-7.063503 a 23.304206,23.304206 0 0 1 5.864847,-3.835695 27.928658,27.928658 0 0 1 2.108348,-0.873307 q 4.65549,-1.712363 10.434718,-1.712363 0.74916,0 1.49832,0.05351 0.749158,0.05351 1.60534,0.160535 0.74916,-3.424729 1.337785,-6.474877 0.578993,-3.0019882 1.002804,-5.4335452 a 216.3647,216.3647 0 0 0 0.01392,-0.078123 43.302478,43.302478 0 0 1 1.79049,0.5565176 q 1.580726,0.5276224 3.453625,1.2628691 a 13.276172,13.276172 0 0 1 2.204668,1.0980528 q 1.343137,0.8411998 2.260327,1.944604 a 8.314598,8.314598 0 0 1 0.137046,0.1680287 z m -0.321066,69.3507468 a 7.2165445,7.2165445 0 0 0 -0.56829,-2.764398 9.4950589,9.4950589 0 0 0 -0.66247,-1.302467 15.368468,15.368468 0 0 0 -1.430895,-1.97029 q -0.776985,-0.916114 -1.760525,-1.833299 a 26.28907,26.28907 0 0 0 -0.286821,-0.263276 q -2.247477,-2.033433 -5.351137,-4.013354 a 91.546196,91.546196 0 0 0 -4.520641,-2.696973 108.20536,108.20536 0 0 0 -2.221793,-1.209357 955.93155,955.93155 0 0 1 -3.311284,9.461882 834.95837,834.95837 0 0 1 -1.076649,3.006269 q -2.140455,5.939763 -4.280911,11.397924 a 35.862256,35.862256 0 0 0 4.451077,1.073438 32.175322,32.175322 0 0 0 1.007085,0.157323 38.415819,38.415819 0 0 0 3.873152,0.349965 33.455313,33.455313 0 0 0 1.26394,0.02462 q 3.20426,0 5.593008,-0.543676 a 14.301452,14.301452 0 0 0 1.791562,-0.526552 20.177,20.177 0 0 0 1.993834,-0.855112 q 1.517582,-0.75665 2.554633,-1.659922 a 10.257061,10.257061 0 0 0 1.180461,-1.200796 q 0.739527,-0.89578 1.120528,-1.849353 a 11.272707,11.272707 0 0 0 0.366018,-1.053104 q 0.155187,-0.538324 0.223675,-1.017786 a 5.0728787,5.0728787 0 0 0 0.05249,-0.711702 z M -66.019516,37.843175 a 10.506424,10.506424 0 0 0 0.07491,0.118794 q 1.230762,1.926411 3.264194,3.906331 a 41.215534,41.215534 0 0 0 2.490419,2.227143 52.350181,52.350181 0 0 0 2.218583,1.732699 q 2.675569,1.979921 5.565182,3.799308 A 2286.4727,2286.4727 0 0 1 -49.553,38.731464 2094.3979,2094.3979 0 0 1 -49.4631,38.39006 q 1.444807,-5.45816 2.72908,-10.702275 -1.605341,-0.214046 -3.157171,-0.37458 -1.55183,-0.160534 -3.050149,-0.160534 a 27.843041,27.843041 0 0 0 -3.987668,0.276119 24.179651,24.179651 0 0 0 -1.470492,0.258995 q -2.568547,0.535114 -4.548467,1.444808 a 11.389362,11.389362 0 0 0 -1.518653,0.833706 q -0.788759,0.521201 -1.375243,1.131231 a 6.6899925,6.6899925 0 0 0 -0.209766,0.229029 q -1.123739,1.284273 -1.123739,2.889614 0,1.763735 1.155846,3.627002 z"
       id="1"
       vector-effect="non-scaling-stroke"
       style="font-size:12px;display:inline;fill:#1a2a37;fill-rule:evenodd;stroke:#d6e0ea;stroke-width:0.535114mm;stroke-linecap:round" />
  </g>
</svg>
