<?xml version="1.0" encoding="UTF-8" standalone="no"?>
<svg
   width="110"
   height="110"
   viewBox="0 0 109.99999 110"
   version="1.1"
   id="svg5"
   xmlns="http://www.w3.org/2000/svg"
   xmlns:svg="http://www.w3.org/2000/svg">
  <defs
     id="defs9" />
  <g
     id="layer1">
    <circle
       style="fill:#1a1a1a;fill-opacity:1;stroke-width:1.02706"
       id="path167"
       cx="55"
       cy="55"
       r="55" />
  </g>
  <g
     id="layer2"
     style="display:inline">
    <path
       d="m 99.827618,29.767339 q 0,5.145794 -2.902478,9.701965 a 33.991529,26.992907 0 0 1 -7.399328,7.695105 38.773212,30.790076 0 0 1 -0.633143,0.452404 45.943038,36.483683 0 0 1 -8.884321,4.83919 54.10916,42.968457 0 0 1 -3.130639,1.217839 52.386566,41.600533 0 0 1 -12.483407,3.01565 60.011338,47.655418 0 0 1 -2.501539,0.307674 q 2.024994,4.824182 4.927484,9.916377 2.902489,5.092192 6.277476,9.809169 a 119.38819,94.806976 0 0 0 4.990934,6.392579 102.82645,81.655182 0 0 0 2.029041,2.290949 70.280754,55.810429 0 0 0 3.163041,3.204329 q 1.63889,1.534088 3.24944,2.776584 a 39.751959,31.567306 0 0 0 0.742499,0.558531 q -0.674999,1.072042 -1.957498,2.144084 a 17.610687,13.98477 0 0 1 -2.250445,1.576971 20.351178,16.161012 0 0 1 -0.719542,0.406306 q -1.687494,0.911235 -3.509991,1.500858 a 10.77566,8.557027 0 0 1 -1.664542,0.423469 7.9811718,6.3379036 0 0 1 -1.777943,0.166154 6.5636769,5.212261 0 0 1 -3.343939,-0.752568 Q 71.10243,96.973552 70.187133,96.281011 A 13.409504,10.648578 0 0 1 69.722736,95.91223 18.315385,14.544373 0 0 1 68.028493,94.248435 Q 66.157398,92.136512 64.255256,88.783167 62.374712,85.467348 60.36862,80.815763 A 214.9449,170.68923 0 0 1 58.450276,76.133089 431.75682,342.86108 0 0 1 56.086434,69.85951 Q 55.065837,67.059339 53.987191,63.951493 A 820.83489,651.83065 0 0 1 51.7678,57.425983 h -2.969992 q -1.484993,0 -2.29499,-0.214408 a 4.7776332,3.7939513 0 0 1 -0.665547,-0.370924 q -0.647999,-0.42453 -1.354046,-1.124571 a 17.886087,14.203465 0 0 1 -0.0055,-0.0055 q -3.644987,6.217832 -6.479977,11.685241 a 262.15018,208.17525 0 0 0 -3.910936,7.989915 228.01015,181.06443 0 0 0 -1.151544,2.569683 q -2.227495,5.092191 -3.914988,9.862773 -1.687494,4.770581 -2.902489,9.701974 A 19.47773,15.467402 0 0 1 20.14685,95.566912 18.084536,14.361055 0 0 1 18.152909,94.411254 q -2.840423,-1.895317 -5.394611,-5.081416 a 43.599448,34.622621 0 0 1 -0.9504,-1.243569 q 0.540001,-0.964835 1.147502,-1.87607 0.465747,-0.697899 1.128588,-1.835334 a 110.65641,87.873013 0 0 0 0.423904,-0.737563 q 0.897742,-1.579116 2.22209,-3.980488 a 897.83469,712.97662 0 0 0 0.140399,-0.254074 l 3.779987,-6.861058 a 814.07143,646.45974 0 0 0 1.904844,-3.487348 q 0.849146,-1.566251 1.790094,-3.321184 a 1660.7924,1318.8467 0 0 0 1.975043,-3.697464 Q 28.59374,57.76146 31.53808,52.219008 a 48746.365,38709.824 0 0 0 2.81474,-5.299094 680.53666,540.41885 0 0 0 1.534943,-2.838763 q 1.206897,-2.253429 2.177543,-4.129501 1.552496,-3.001714 2.767491,-5.735417 1.214997,-2.733703 2.227492,-5.467406 a 138.89562,110.29794 0 0 0 0.899097,-2.546097 q 0.585898,-1.735633 1.193396,-3.725342 -6.209978,1.715267 -11.542459,3.805746 a 54.00656,42.886981 0 0 0 -4.317285,1.880358 q -2.550141,1.242496 -4.525184,2.56861 -0.944996,-0.499571 -1.929143,-1.388293 a 16.99104,13.492702 0 0 1 -0.568349,-0.541382 25.34886,20.129705 0 0 1 -1.950743,-2.267365 28.657699,22.757277 0 0 1 -0.411746,-0.57354 q -1.079955,-1.554409 -1.889951,-3.162468 a 16.72644,13.28258 0 0 1 -0.546749,-1.253216 q -0.228149,-0.630361 -0.334796,-1.20283 a 8.8843199,7.0550986 0 0 1 -0.06344,-0.438465 41.839052,33.224681 0 0 1 3.892035,-1.814962 q 2.045244,-0.844769 4.414487,-1.632719 a 72.521745,57.590017 0 0 1 1.615939,-0.518868 104.47207,82.961992 0 0 1 10.033163,-2.642581 117.92344,93.643798 0 0 1 2.454293,-0.519946 q 6.614971,-1.340022 13.499945,-2.090457 a 104.94997,83.341501 0 0 1 7.446574,-0.606775 82.881601,65.816856 0 0 1 5.378382,-0.1436499 q 10.93631,0 18.548937,2.4185239 a 28.517299,22.645782 0 0 1 6.560974,2.888079 q 8.909952,5.3066 8.909952,14.526151 z m -34.559868,-11.04202 1.619996,2.036878 a 12.642706,10.039659 0 0 0 -0.502198,0.558533 q -0.828899,0.979846 -2.173493,2.882718 a 137.17573,108.93218 0 0 0 -0.294298,0.418096 269.69529,214.1669 0 0 0 -1.603793,2.329542 q -0.7047,1.035593 -1.467446,2.182676 a 497.51645,395.08124 0 0 0 -1.586244,2.402442 q -2.632492,4.020151 -5.534982,8.73713 -2.90249,4.716979 -5.602481,9.326752 a 94.946506,75.397683 0 0 0 10.878264,-0.474913 75.756332,60.158626 0 0 0 7.751671,-1.025942 q 8.50497,-1.500856 14.71495,-4.23456 a 35.392827,28.105686 0 0 0 5.059785,-2.675814 25.756558,20.453461 0 0 0 4.592677,-3.75643 q 3.442492,-3.698539 3.442492,-8.20111 a 14.897197,11.829969 0 0 0 -0.623702,-3.518436 11.33996,9.0051397 0 0 0 -4.236285,-4.682675 15.264396,12.121562 0 0 0 -4.172835,-1.674524 q -4.047284,-1.09134 -9.984563,-1.161023 a 55.488854,44.064081 0 0 0 -0.827546,-0.0055 q -2.294994,0 -4.589984,0.160806 -2.294993,0.160806 -4.859985,0.375214 z"
       id="0"
       vector-effect="non-scaling-stroke"
       style="font-size:12px;display:inline;fill:#f3f3f7;fill-opacity:1;fill-rule:evenodd;stroke:#f3f3f7;stroke-width:0.60151mm;stroke-linecap:round;stroke-opacity:1" />
  </g>
</svg>
